<svg xmlns="http://www.w3.org/2000/svg" width="854" height="409" viewBox="0 0 854 409">
  <defs>
    <style>
      .cls-1 {
        fill: #fff;
        stroke: #070a0d;
        stroke-linecap: square;
        stroke-width: 10px;
      }

      .cls-1, .cls-2 {
        fill-rule: evenodd;
      }

      .cls-2 {
        fill: #d0d0d0;
      }
    </style>
  </defs>
  <path id="Triangle_1" data-name="Triangle 1" class="cls-1" d="M793,327H167.1l-43.5,75.487a3,3,0,0,1-5.2,0L74.9,327H61A56,56,0,0,1,5,271V61A56,56,0,0,1,61,5H793a56,56,0,0,1,56,56V271A56,56,0,0,1,793,327Z"/>
  <path id="La_tua_risposta:" data-name="La tua risposta:" class="cls-2" d="M133.67,96.217a14.861,14.861,0,0,1-3.5,5.4,34.269,34.269,0,0,1-7.8.8,15.9,15.9,0,0,1-7.65-1.75q-3.249-1.751-3.25-4.6a4.92,4.92,0,0,1,2.45-4.4,12.23,12.23,0,0,1,6.6-1.55,14.784,14.784,0,0,1,7.05,1.55,29.488,29.488,0,0,1,6.1,4.55h0Zm14.2,9.3q-2.6-.8-8-6.2,9.1-6.4,11.2-18.1,2-9.7,4.55-24.55t2.55-16.45q2.2-14.8,14.1-14.8a13.939,13.939,0,0,1,10.75,4.65q4.248,4.65,4.25,13.55h2.4q0-11-5.65-16.1t-14.55-5.1a28.755,28.755,0,0,0-15.9,4.5q-8,5.2-10.4,20.2l-6.7,38.7a61.859,61.859,0,0,1-2,8.2,19.967,19.967,0,0,0-14-5.8q-5.7,0-8.55,2.15a6.791,6.791,0,0,0-2.85,5.7q0,3.548,3.9,5.9t11.3,2.35a26.573,26.573,0,0,0,13.8-3.8q3.3,3.3,4.1,3.9,0.3,0.2,1.95,1.45a8.246,8.246,0,0,0,2.65,1.5,33.6,33.6,0,0,1,3.25,1.1q2.25,0.849,8.15.85a19.233,19.233,0,0,0,13.15-5,28.8,28.8,0,0,0,8.25-13.5l-2.4-.8a28.081,28.081,0,0,1-2.8,6.6,27.543,27.543,0,0,1-3.45,5.05,17.363,17.363,0,0,1-5.25,3.95,14.035,14.035,0,0,1-6.45,1.7q-3.15,0-5.05-.2a17.728,17.728,0,0,1-3.6-.75q-1.7-.551-2.7-0.85h0Zm82.6-19.2-1.5-1.2a7.119,7.119,0,0,1-5,2.8l6.9-37.8-1.3.3a73.2,73.2,0,0,1-11,.6q-0.6,3-1.1,6-2.4-6.9-9.7-6.9a18.245,18.245,0,0,0-14.5,6.5q-5.6,6.5-5.6,17.9,0,7.3,3.95,11.35t10.65,4.05q6.7,0,11.1-7.7,0.8,7.7,9.6,7.7a9.371,9.371,0,0,0,7.5-3.6h0Zm-31.5-6.7a55.885,55.885,0,0,1,3-18.25q3-8.749,7.9-8.75a5.263,5.263,0,0,1,4.5,2.8,14.047,14.047,0,0,1,2.1,6.6q-0.6,3.2-1.45,8.15t-1.15,6.25a25.1,25.1,0,0,1-5.3,8.6q-2.5,2.6-4.9,2.6a3.947,3.947,0,0,1-3.55-1.75q-1.152-1.748-1.15-6.25h0Zm59.5-28.6-0.2,1.8h4.9q-4.1,22.3-4.1,27.05a9.071,9.071,0,0,0,3.2,7.4,12.126,12.126,0,0,0,8,2.65q11.6,0,15.3-15.8l-1.8-.6a29.579,29.579,0,0,1-4,9.3q-2.8,4.3-6.2,4.3t-3.4-3.2q0-5.3,5-31.1h12.5l0.2-1.8h-12.4q1.7-8.7,3.1-15.7l-1.3.3a73.2,73.2,0,0,1-11,.6l-2.7,14.8h-5.1Zm35.2,14.35q-1.9,8.85-1.9,11.95,0,5.9,3.3,9.25t9.2,3.35q8.2,0,12.4-8.4a8.1,8.1,0,0,0,2.6,6.2,10.248,10.248,0,0,0,7,2.2,9.371,9.371,0,0,0,7.5-3.6l-1.5-1.2a7.119,7.119,0,0,1-5,2.8l6.7-37.8-1.3.3a69,69,0,0,1-10.8.6l-4.2,23.1a30.129,30.129,0,0,1-4.75,9.4q-2.753,3.4-5.65,3.4-4.1,0-4.1-4.3,0-2.8,1.8-11.8a75.98,75.98,0,0,0,1.8-12.5q0-8.2-9.1-8.2a12.572,12.572,0,0,0-5.3,1.1,6.143,6.143,0,0,0-3.1,2.5l1.5,1.2q2.6-2.8,5-2.8A89.387,89.387,0,0,1,293.67,65.367Zm88.6,20.95-1.5-1.2a7.119,7.119,0,0,1-5,2.8l6.9-37.8-1.3.3a73.2,73.2,0,0,1-11,.6q-0.6,3-1.1,6-2.4-6.9-9.7-6.9a18.245,18.245,0,0,0-14.5,6.5q-5.6,6.5-5.6,17.9,0,7.3,3.95,11.35t10.65,4.05q6.7,0,11.1-7.7,0.8,7.7,9.6,7.7a9.371,9.371,0,0,0,7.5-3.6h0Zm-31.5-6.7a55.885,55.885,0,0,1,3-18.25q3-8.749,7.9-8.75a5.263,5.263,0,0,1,4.5,2.8,14.047,14.047,0,0,1,2.1,6.6q-0.6,3.2-1.45,8.15t-1.15,6.25a25.1,25.1,0,0,1-5.3,8.6q-2.5,2.6-4.9,2.6a3.947,3.947,0,0,1-3.55-1.75q-1.152-1.748-1.15-6.25h0Zm60.5-24.7a7.119,7.119,0,0,1,5-2.8l-6.6,36.9h12l3.6-19.9v-0.1a45.8,45.8,0,0,1,3.6-8.5,18.686,18.686,0,0,1,4.25-5.8,7.77,7.77,0,0,1,5.2-2.3,5.7,5.7,0,0,1,4,1.25q1.35,1.252,1.35,4.7t-4.3,9.75q-4.3,6.3-4.3,10h2.4a11.233,11.233,0,0,1,2.2-5.95q2.2-3.349,4.4-7.05a13.8,13.8,0,0,0,2.2-7q0-8-7.7-8-7.2,0-11.7,9.4v-0.6a8.4,8.4,0,0,0-2.5-6.5q-2.5-2.3-7.05-2.3a9.418,9.418,0,0,0-7.55,3.6Zm55.6,31.4-1.5-1.2a7.119,7.119,0,0,1-5,2.8l6.9-37.8-1.4.3a71.094,71.094,0,0,1-10.9.6h-4.3l-0.2,1.8h4.2l-3.3,17.9q-1.6,9.6-1.6,10.9a7.7,7.7,0,0,0,2.55,6,10.148,10.148,0,0,0,7.05,2.3,9.371,9.371,0,0,0,7.5-3.6h0Zm-3.7-43.7a7.113,7.113,0,0,0,5.15-2.1,6.868,6.868,0,0,0,2.15-5.1,7.341,7.341,0,0,0-7.3-7.3,6.865,6.865,0,0,0-5.1,2.15,7.112,7.112,0,0,0-2.1,5.15A7.17,7.17,0,0,0,463.17,42.617Zm11.8,41.5a9.781,9.781,0,0,0,2.7.4,6.308,6.308,0,0,0,4.9-2.1,7.4,7.4,0,0,0,1.9-5.15,6.675,6.675,0,0,0-6.9-6.95,7.58,7.58,0,0,0-5.2,1.95q-2.2,1.95-2.2,6.4a10.22,10.22,0,0,0,3.85,7.85q3.847,3.4,11.35,3.4a18.8,18.8,0,0,0,12.85-4.7,15.05,15.05,0,0,0,5.35-11.8,22.342,22.342,0,0,0-1.4-8.05,24.292,24.292,0,0,0-3.1-5.9,24.055,24.055,0,0,1-3.1-5.9,22.265,22.265,0,0,1-1.4-8.05h-2.4l-0.7,1.1a14.419,14.419,0,0,0-1.4,3.4,16.016,16.016,0,0,0-.7,4.7v0.4q-6.3,6.6-13.5,8.2v2.4a24.676,24.676,0,0,0,13.7-7.6q0.2,1.2,1.25,6.1a41.381,41.381,0,0,1,1.05,8.5q0,14.6-9.9,14.6-4.8,0-7-3.2h0Zm71-1.05q6.4-6.75,6.4-18.55,0-6.7-3.6-10.55t-10.4-3.85q-6.8,0-11.2,7.5a8.148,8.148,0,0,0-2.7-6.05,10.331,10.331,0,0,0-6.95-2.15,9.32,9.32,0,0,0-7.45,3.6l1.5,1.2a7.119,7.119,0,0,1,5-2.8l-9.4,52.4h11.9l3-16.1a11.586,11.586,0,0,0,7.3,2.1Q539.57,89.817,545.97,83.067Zm-19.6-18.95h0.1a15.691,15.691,0,0,1,1.2-3.05,23.3,23.3,0,0,1,3.85-5.65q2.648-3,5.15-3a3.608,3.608,0,0,1,3.45,1.7q0.948,1.7.95,6.3,0,11.1-3.55,19.1t-8.3,8q-4.752,0-6.45-3.8Zm46.6,25.8q11.4,0,17.45-7t6.05-18.4q0-6.7-4.05-10.55t-11.3-3.85a29.305,29.305,0,0,0-12.1,2.2,16.044,16.044,0,0,0-7.25,6.05,28.12,28.12,0,0,0-3.45,8,41.277,41.277,0,0,0-1.05,10,12.889,12.889,0,0,0,4,9.7q4,3.851,11.7,3.85h0Zm-0.65-30.25q3.75-7.65,8.3-7.65t4.55,8.4q0,11.1-3.65,19.15t-8.3,8.05q-4.65,0-4.65-8Q568.57,67.317,572.32,59.667Zm31.45,24.45a9.781,9.781,0,0,0,2.7.4,6.308,6.308,0,0,0,4.9-2.1,7.4,7.4,0,0,0,1.9-5.15,6.675,6.675,0,0,0-6.9-6.95,7.58,7.58,0,0,0-5.2,1.95q-2.2,1.95-2.2,6.4a10.22,10.22,0,0,0,3.85,7.85q3.847,3.4,11.35,3.4a18.8,18.8,0,0,0,12.85-4.7,15.05,15.05,0,0,0,5.35-11.8,22.342,22.342,0,0,0-1.4-8.05,24.292,24.292,0,0,0-3.1-5.9,24.055,24.055,0,0,1-3.1-5.9,22.265,22.265,0,0,1-1.4-8.05h-2.4l-0.7,1.1a14.419,14.419,0,0,0-1.4,3.4,16.016,16.016,0,0,0-.7,4.7v0.4q-6.3,6.6-13.5,8.2v2.4a24.676,24.676,0,0,0,13.7-7.6q0.2,1.2,1.25,6.1a41.381,41.381,0,0,1,1.05,8.5q0,14.6-9.9,14.6-4.8,0-7-3.2h0Zm35.5-33.1-0.2,1.8h4.9q-4.1,22.3-4.1,27.05a9.071,9.071,0,0,0,3.2,7.4,12.126,12.126,0,0,0,8,2.65q11.6,0,15.3-15.8l-1.8-.6a29.579,29.579,0,0,1-4,9.3q-2.8,4.3-6.2,4.3t-3.4-3.2q0-5.3,5-31.1h12.5l0.2-1.8h-12.4q1.7-8.7,3.1-15.7l-1.3.3a73.2,73.2,0,0,1-11,.6l-2.7,14.8h-5.1Zm73.9,35.3-1.5-1.2a7.119,7.119,0,0,1-5,2.8l6.9-37.8-1.3.3a73.2,73.2,0,0,1-11,.6q-0.6,3-1.1,6-2.4-6.9-9.7-6.9a18.245,18.245,0,0,0-14.5,6.5q-5.6,6.5-5.6,17.9,0,7.3,3.95,11.35t10.65,4.05q6.7,0,11.1-7.7,0.8,7.7,9.6,7.7a9.371,9.371,0,0,0,7.5-3.6h0Zm-31.5-6.7a55.885,55.885,0,0,1,3-18.25q3-8.749,7.9-8.75a5.263,5.263,0,0,1,4.5,2.8,14.047,14.047,0,0,1,2.1,6.6q-0.6,3.2-1.45,8.15t-1.15,6.25a25.1,25.1,0,0,1-5.3,8.6q-2.5,2.6-4.9,2.6a3.947,3.947,0,0,1-3.55-1.75q-1.152-1.748-1.15-6.25h0Zm46,10.2a7.113,7.113,0,0,0,5.15-2.1,6.868,6.868,0,0,0,2.15-5.1,7.341,7.341,0,0,0-7.3-7.3,6.865,6.865,0,0,0-5.1,2.15,7.112,7.112,0,0,0-2.1,5.15A7.17,7.17,0,0,0,727.67,89.817Zm4-25.2a7.113,7.113,0,0,0,5.15-2.1,6.868,6.868,0,0,0,2.15-5.1,7.341,7.341,0,0,0-7.3-7.3,6.865,6.865,0,0,0-5.1,2.15,7.112,7.112,0,0,0-2.1,5.15A7.17,7.17,0,0,0,731.67,64.617Z"/>
</svg>
